<?xml version="1.0" standalone="no"?>
<!DOCTYPE svg PUBLIC "-//W3C//DTD SVG 20010904//EN"
 "http://www.w3.org/TR/2001/REC-SVG-20010904/DTD/svg10.dtd">
<svg version="1.0" xmlns="http://www.w3.org/2000/svg"
 width="920.000000pt" height="595.000000pt" viewBox="0 0 920.000000 595.000000"
 preserveAspectRatio="xMidYMid meet">

<g transform="translate(0.000000,595.000000) scale(0.100000,-0.100000)"
fill="#000000" stroke="none">
<path d="M3233 5898 l-53 -54 0 -1305 0 -1306 39 -31 c22 -17 59 -37 83 -43
31 -9 395 -13 1322 -16 l1278 -5 55 59 55 58 -6 1240 c-4 682 -10 1268 -14
1303 -10 80 -46 120 -119 134 -26 5 -614 12 -1318 14 l-1270 6 -52 -54z m2437
-1353 l0 -1065 -1075 0 -1075 0 0 1065 0 1065 1075 0 1075 0 0 -1065z"/>
<path d="M4498 4908 c-105 -93 -444 -421 -503 -488 -80 -90 -93 -140 -52 -201
34 -51 103 -99 141 -99 49 0 147 75 333 255 90 86 167 155 172 153 5 -1 81
-69 168 -150 184 -170 276 -246 310 -255 68 -16 169 56 192 139 11 39 11 50
-3 77 -40 77 -628 640 -668 641 -5 0 -45 -33 -90 -72z"/>
<path d="M200 2791 c-113 -7 -142 -18 -160 -61 -30 -72 -32 -158 -37 -1379
l-5 -1244 53 -53 53 -54 1317 0 1317 0 41 47 41 48 0 1300 0 1301 -53 52 -53
52 -1204 -2 c-663 -1 -1252 -4 -1310 -7z m2290 -1386 l0 -1065 -1075 0 -1075
0 0 1065 0 1065 1075 0 1075 0 0 -1065z"/>
<path d="M1625 2035 c-16 -7 -60 -42 -97 -77 -71 -66 -419 -436 -495 -525
l-45 -52 22 -28 c73 -94 579 -625 609 -639 74 -36 150 -12 208 65 67 87 54
111 -269 482 -54 61 -98 118 -98 126 0 8 56 74 125 146 126 133 232 265 260
323 28 58 -14 141 -89 175 -48 22 -90 23 -131 4z"/>
<path d="M3383 2791 c-121 -7 -150 -23 -171 -92 -23 -76 -31 -494 -32 -1564
l0 -1031 53 -52 53 -52 1315 0 1315 0 48 49 48 49 -5 1268 c-3 854 -8 1285
-16 1317 -6 26 -22 63 -37 82 l-26 35 -1222 -2 c-671 -1 -1267 -4 -1323 -7z
m2287 -1386 l0 -1065 -1075 0 -1075 0 0 1065 0 1065 1075 0 1075 0 0 -1065z"/>
<path d="M4015 1792 c-17 -10 -45 -35 -63 -56 -78 -89 -41 -146 343 -534 l300
-303 306 308 c169 169 321 330 338 357 37 59 40 102 11 161 -26 54 -80 85
-148 85 -67 0 -107 -31 -329 -252 l-173 -172 -33 29 c-17 16 -99 95 -182 176
-196 192 -232 219 -293 219 -28 0 -59 -8 -77 -18z"/>
<path d="M6540 2791 c-52 -3 -106 -12 -118 -19 -13 -8 -33 -35 -44 -60 -20
-43 -21 -74 -28 -512 -9 -512 -3 -1797 9 -1983 9 -137 22 -164 92 -185 75 -23
354 -29 1514 -31 l1119 -1 53 52 53 52 0 1289 0 1289 -51 59 -52 59 -1226 -2
c-674 -1 -1269 -4 -1321 -7z m2298 -335 c1 -2 5 -478 9 -1059 l6 -1057 -1088
0 -1088 0 7 1033 c3 567 9 1044 12 1059 l6 28 307 2 c335 3 1824 -2 1829 -6z"/>
<path d="M7435 2036 c-42 -18 -93 -79 -100 -120 -13 -69 33 -136 265 -386 63
-69 121 -133 128 -142 12 -14 -3 -33 -114 -150 -162 -170 -280 -312 -287 -345
-7 -39 10 -89 45 -129 40 -45 77 -64 127 -64 35 0 49 9 133 84 51 46 125 117
163 157 124 130 369 393 389 416 l18 22 -235 253 c-270 291 -373 393 -411 408
-37 14 -84 12 -121 -4z"/>
</g>
</svg>
